<svg width="1600" height="500" viewBox="0 0 1600 500" fill="none" xmlns="http://www.w3.org/2000/svg">
  <defs>
    <linearGradient id="bg" x1="0" y1="0" x2="1600" y2="500" gradientUnits="userSpaceOnUse">
      <stop offset="0" stop-color="#0B0B0B"/>
      <stop offset="0.55" stop-color="#111111"/>
      <stop offset="1" stop-color="#1E1E1E"/>
    </linearGradient>
    <linearGradient id="accent" x1="240" y1="90" x2="1210" y2="380" gradientUnits="userSpaceOnUse">
      <stop offset="0" stop-color="#8D6A9F"/>
      <stop offset="0.62" stop-color="#B8B2C8"/>
      <stop offset="1" stop-color="#E5B07A"/>
    </linearGradient>
    <filter id="blur-lg" x="-200" y="-200" width="2000" height="900" filterUnits="userSpaceOnUse" color-interpolation-filters="sRGB">
      <feGaussianBlur stdDeviation="60"/>
    </filter>
    <pattern id="grid" width="48" height="48" patternUnits="userSpaceOnUse">
      <path d="M48 0H0V48" stroke="#2B2B2B" stroke-width="1"/>
    </pattern>
  </defs>

  <rect width="1600" height="500" fill="url(#bg)"/>
  <rect width="1600" height="500" fill="url(#grid)" opacity="0.38"/>

  <g filter="url(#blur-lg)" opacity="0.72">
    <circle cx="330" cy="120" r="170" fill="#8D6A9F"/>
    <circle cx="1220" cy="170" r="210" fill="#8D6A9F"/>
    <circle cx="920" cy="410" r="180" fill="#B8B2C8"/>
  </g>

  <path d="M0 405C131 360 234 332 364 340C499 348 600 406 742 405C879 404 970 338 1111 330C1258 321 1385 355 1600 438V500H0V405Z" fill="#0B0B0B" opacity="0.72"/>

  <rect x="90" y="86" width="1420" height="328" rx="28" fill="#111111" fill-opacity="0.58" stroke="#2B2B2B"/>

  <g opacity="0.95">
    <path d="M145 270L269 146" stroke="url(#accent)" stroke-width="18" stroke-linecap="round"/>
    <path d="M145 270L255 270" stroke="#F1F1F1" stroke-opacity="0.9" stroke-width="18" stroke-linecap="round"/>
    <path d="M185 310L308 187" stroke="#B8B2C8" stroke-opacity="0.85" stroke-width="10" stroke-linecap="round"/>
    <circle cx="146" cy="270" r="16" fill="#8D6A9F"/>
    <circle cx="268" cy="146" r="16" fill="#B8B2C8"/>
    <circle cx="307" cy="186" r="10" fill="#8D6A9F"/>
  </g>

  <text x="360" y="196" fill="#F1F1F1" font-family="'Segoe UI', Arial, sans-serif" font-size="88" font-weight="700" letter-spacing="10">KAMELOT</text>
  <text x="366" y="248" fill="#B8B2C8" font-family="'Segoe UI', Arial, sans-serif" font-size="24" letter-spacing="5">PROMPT ENGINEER / VIBE CODER / PRODUCT ARCHITECT</text>
  <text x="366" y="314" fill="#B8B2C8" font-family="'Consolas', 'Courier New', monospace" font-size="28">building systems, interfaces and AI-native products</text>

  <rect x="367" y="344" width="168" height="34" rx="17" fill="#0B0B0B" stroke="#2B2B2B"/>
  <text x="397" y="367" fill="#8D6A9F" font-family="'Consolas', 'Courier New', monospace" font-size="18">kamelot.site</text>

  <rect x="555" y="344" width="208" height="34" rx="17" fill="#0B0B0B" stroke="#2B2B2B"/>
  <text x="585" y="367" fill="#B8B2C8" font-family="'Consolas', 'Courier New', monospace" font-size="18">@DOWHATUWILT</text>

  <rect x="1290" y="116" width="150" height="150" rx="20" fill="#0B0B0B" stroke="#2B2B2B"/>
  <path d="M1330 168H1400" stroke="#8D6A9F" stroke-width="10" stroke-linecap="round"/>
  <path d="M1330 195H1380" stroke="#B8B2C8" stroke-width="10" stroke-linecap="round"/>
  <path d="M1330 222H1410" stroke="#E5B07A" stroke-width="10" stroke-linecap="round"/>
  <text x="1328" y="300" fill="#F1F1F1" font-family="'Segoe UI', Arial, sans-serif" font-size="16" letter-spacing="3">AI NATIVE</text>

  <text x="1293" y="372" fill="#8D6A9F" font-family="'Consolas', 'Courier New', monospace" font-size="15">sharp / cinematic / intentional</text>
</svg>
